<?xml version="1.0" encoding="utf-8"?>
<!-- Generator: Adobe Illustrator 21.0.2, SVG Export Plug-In . SVG Version: 6.00 Build 0)  -->
<svg version="1.0" id="Layer_1" xmlns="http://www.w3.org/2000/svg" xmlns:xlink="http://www.w3.org/1999/xlink" x="0px" y="0px"
	 viewBox="0 0 100 100" style="enable-background:new 0 0 100 100;" xml:space="preserve">
<style type="text/css">
	.st0{fill:none;}
	.st1{fill:#005CB9;}
</style>
<g>
	<path class="st0" d="M41,36.1h18v18H41V36.1z M54.7,40.6l-2.1,3.8L54.7,40.6z"/>
	<path class="st1" d="M49.2,42.8h1.5v-2.2H53v-1.5h-2.2v-2.2h-1.5v2.2H47v1.5h2.2V42.8z M46.2,49.6c-0.8,0-1.5,0.7-1.5,1.5
		c0,0.8,0.7,1.5,1.5,1.5s1.5-0.7,1.5-1.5C47.8,50.2,47.1,49.6,46.2,49.6z M53.8,49.6c-0.8,0-1.5,0.7-1.5,1.5c0,0.8,0.7,1.5,1.5,1.5
		c0.8,0,1.5-0.7,1.5-1.5C55.2,50.2,54.6,49.6,53.8,49.6z M46.4,47.1L46.4,47.1l0.7-1.3h5.6c0.6,0,1.1-0.3,1.3-0.8l2.9-5.3l-1.3-0.7
		h0l-0.8,1.5l-2.1,3.8h-5.3l-0.1-0.2l-1.7-3.5l-0.7-1.5l-0.7-1.5h-2.5v1.5h1.5l2.7,5.7l-1,1.8c-0.1,0.2-0.2,0.5-0.2,0.7
		c0,0.8,0.7,1.5,1.5,1.5h9v-1.5h-8.7C46.5,47.3,46.4,47.2,46.4,47.1z"/>
</g>
</svg>
