<?xml version="1.0" encoding="utf-8"?>
<!-- Generator: Adobe Illustrator 21.0.0, SVG Export Plug-In . SVG Version: 6.00 Build 0)  -->
<svg version="1.1" id="Layer_1" xmlns="http://www.w3.org/2000/svg" xmlns:xlink="http://www.w3.org/1999/xlink" x="0px" y="0px"
	 viewBox="0 0 30 30" style="enable-background:new 0 0 30 30;" xml:space="preserve">
<style type="text/css">
	.st0{fill:#FFFFFF;}
</style>
<g>
	<g>
		<path class="st0" d="M11.9,21.6c-0.8,0-1.5,0.7-1.5,1.5c0,0.8,0.7,1.5,1.5,1.5c0.8,0,1.5-0.7,1.5-1.5
			C13.4,22.3,12.8,21.6,11.9,21.6z M19.4,21.6c-0.8,0-1.5,0.7-1.5,1.5c0,0.8,0.7,1.5,1.5,1.5c0.8,0,1.5-0.7,1.5-1.5
			C20.9,22.3,20.3,21.6,19.4,21.6z M12.1,19.2L12.1,19.2l0.7-1.3h5.6c0.6,0,1.1-0.3,1.3-0.8l2.9-5.3l-1.3-0.7h0l-0.8,1.5l-2.1,3.8
			h-5.3L13,16.2l-1.7-3.5l-0.7-1.5L9.9,9.6H7.4v1.5h1.5l2.7,5.7l-1,1.8c-0.1,0.2-0.2,0.5-0.2,0.7c0,0.8,0.7,1.5,1.5,1.5h9v-1.5h-8.7
			C12.2,19.4,12.1,19.3,12.1,19.2z"/>
	</g>
	<g>
		<polygon class="st0" points="11.6,11.6 12.4,13.3 13.1,14.6 15.8,16 19.4,8.9 14,6.2 11.4,11.1 		"/>
	</g>
	<polygon class="st0" points="17.4,14.8 18.2,15.2 21.8,8.2 16.3,5.4 15.9,6.2 20.6,8.5 	"/>
</g>
</svg>
