<?xml version="1.0" encoding="utf-8"?>
<!-- Generator: Adobe Illustrator 21.0.0, SVG Export Plug-In . SVG Version: 6.00 Build 0)  -->
<svg version="1.1" id="Layer_1" xmlns="http://www.w3.org/2000/svg" xmlns:xlink="http://www.w3.org/1999/xlink" x="0px" y="0px"
	 viewBox="0 0 30 30" style="enable-background:new 0 0 30 30;" xml:space="preserve">
<style type="text/css">
	.st0{fill:#26A9E0;}
</style>
<g>
	<path class="st0" d="M10.8,24.9c-1.1,0-2.1,0.9-2.1,2.1s0.9,2.1,2.1,2.1s2.1-0.9,2.1-2.1S11.9,24.9,10.8,24.9z M21.2,24.9
		c-1.1,0-2.1,0.9-2.1,2.1s0.9,2.1,2.1,2.1s2.1-0.9,2.1-2.1S22.3,24.9,21.2,24.9z M10.9,21.5l0-0.1l0.9-1.7h7.8
		c0.8,0,1.5-0.4,1.8-1.1l4-7.3l-1.8-1h0l-1.1,2.1l-2.9,5.2h-7.3l-0.1-0.3l-2.3-4.9l-1-2.1l-1-2.1H4.5v2.1h2.1l3.7,7.9l-1.4,2.6
		c-0.2,0.3-0.3,0.6-0.3,1c0,1.1,0.9,2.1,2.1,2.1h12.5v-2.1H11.2C11.1,21.8,10.9,21.6,10.9,21.5z"/>
	<g>
		<polygon class="st0" points="10.3,9.5 11.4,11.9 12.3,13.8 16.1,15.7 21.1,5.9 13.5,2 10,8.9 		"/>
	</g>
	<polygon class="st0" points="18.3,14.1 19.4,14.6 24.4,4.8 16.9,0.9 16.3,2 22.7,5.3 	"/>
</g>
</svg>
